{
  "accessors": [
    {
      "bufferView": 2,
      "componentType": 5126,
      "count": 3543,
      "max": [
        50.30728530883789,
        209.66070556640625,
        219.3578338623047
      ],
      "min": [
        -43.713844299316406,
        -429.7927551269531,
        175.9521942138672
      ],
      "type": "VEC3"
    },
    {
      "bufferView": 2,
      "byteOffset": 42516,
      "componentType": 5126,
      "count": 3543,
      "max": [
        1.0,
        1.0,
        1.0
      ],
      "min": [
        -0.9999999403953552,
        -1.0,
        -1.0
      ],
      "type": "VEC3"
    },
    {
      "bufferView": 3,
      "componentType": 5126,
      "count": 3543,
      "max": [
        1.0,
        0.9999752640724182,
        1.0,
        1.0
      ],
      "min": [
        -1.0,
        -1.0,
        -1.0,
        -1.0
      ],
      "type": "VEC4"
    },
    {
      "bufferView": 1,
      "componentType": 5126,
      "count": 3543,
      "max": [
        0.6699185967445374,
        0.9962902069091797
      ],
      "min": [
        0.0037097674794495106,
        0.0037097930908203125
      ],
      "type": "VEC2"
    },
    {
      "bufferView": 0,
      "componentType": 5125,
      "count": 12675,
      "type": "SCALAR"
    },
    {
      "bufferView": 2,
      "byteOffset": 85032,
      "componentType": 5126,
      "count": 792,
      "max": [
        47.199806213378906,
        203.04783630371094,
        197.94296264648438
      ],
      "min": [
        -2.53841233253479,
        24.524091720581055,
        -1842.27197265625
      ],
      "type": "VEC3"
    },
    {
      "bufferView": 2,
      "byteOffset": 94536,
      "componentType": 5126,
      "count": 792,
      "max": [
        1.0,
        0.9999876022338867,
        0.28980469703674316
      ],
      "min": [
        -1.0,
        -0.9999876022338867,
        -0.2898063361644745
      ],
      "type": "VEC3"
    },
    {
      "bufferView": 1,
      "byteOffset": 28344,
      "componentType": 5126,
      "count": 792,
      "max": [
        0.9982494711875916,
        0.9940274357795715
      ],
      "min": [
        0.9453195929527283,
        0.0006706714630126953
      ],
      "type": "VEC2"
    },
    {
      "bufferView": 0,
      "byteOffset": 50700,
      "componentType": 5125,
      "count": 2484,
      "type": "SCALAR"
    },
    {
      "bufferView": 2,
      "byteOffset": 104040,
      "componentType": 5126,
      "count": 792,
      "max": [
        -269.1986999511719,
        203.04783630371094,
        197.94296264648438
      ],
      "min": [
        -318.9368896484375,
        24.524091720581055,
        -1842.27197265625
      ],
      "type": "VEC3"
    },
    {
      "bufferView": 2,
      "byteOffset": 113544,
      "componentType": 5126,
      "count": 792,
      "max": [
        1.0,
        0.9999876022338867,
        0.2898046374320984
      ],
      "min": [
        -1.0,
        -0.9999875426292419,
        -0.2898063063621521
      ],
      "type": "VEC3"
    },
    {
      "bufferView": 1,
      "byteOffset": 34680,
      "componentType": 5126,
      "count": 792,
      "max": [
        0.9982494711875916,
        0.9940274357795715
      ],
      "min": [
        0.9453195929527283,
        0.0006706714630126953
      ],
      "type": "VEC2"
    },
    {
      "bufferView": 0,
      "byteOffset": 60636,
      "componentType": 5125,
      "count": 2484,
      "type": "SCALAR"
    },
    {
      "bufferView": 2,
      "byteOffset": 123048,
      "componentType": 5126,
      "count": 3367,
      "max": [
        -89.35232543945313,
        209.66070556640625,
        219.3578338623047
      ],
      "min": [
        -183.37344360351563,
        -429.7927551269531,
        175.9521942138672
      ],
      "type": "VEC3"
    },
    {
      "bufferView": 2,
      "byteOffset": 163452,
      "componentType": 5126,
      "count": 3367,
      "max": [
        1.0,
        1.0,
        1.0
      ],
      "min": [
        -1.0,
        -1.0,
        -1.0
      ],
      "type": "VEC3"
    },
    {
      "bufferView": 3,
      "byteOffset": 56688,
      "componentType": 5126,
      "count": 3367,
      "max": [
        1.0,
        1.0,
        1.0,
        1.0
      ],
      "min": [
        -1.0,
        -1.0,
        -1.0,
        -1.0
      ],
      "type": "VEC4"
    },
    {
      "bufferView": 1,
      "byteOffset": 41016,
      "componentType": 5126,
      "count": 3367,
      "max": [
        0.6699185967445374,
        0.9962902069091797
      ],
      "min": [
        0.0037097674794495106,
        0.0037097930908203125
      ],
      "type": "VEC2"
    },
    {
      "bufferView": 0,
      "byteOffset": 70572,
      "componentType": 5125,
      "count": 12678,
      "type": "SCALAR"
    }
  ],
  "asset": {
    "extras": {
      "author": "adventurer (https://sketchfab.com/ahmagh2e)",
      "license": "CC-BY-4.0 (http://creativecommons.org/licenses/by/4.0/)",
      "source": "https://sketchfab.com/3d-models/electric-post-avenue-road-the-alley-lowpoly-6b5b23b007f14556bf6678150f1f2271",
      "title": "Electric post Avenue Road the alley lowpoly"
    },
    "generator": "Sketchfab-15.77.0",
    "version": "2.0"
  },
  "bufferViews": [
    {
      "buffer": 0,
      "byteLength": 121284,
      "name": "floatBufferViews",
      "target": 34963
    },
    {
      "buffer": 0,
      "byteLength": 67952,
      "byteOffset": 121284,
      "byteStride": 8,
      "name": "floatBufferViews",
      "target": 34962
    },
    {
      "buffer": 0,
      "byteLength": 203856,
      "byteOffset": 189236,
      "byteStride": 12,
      "name": "floatBufferViews",
      "target": 34962
    },
    {
      "buffer": 0,
      "byteLength": 110560,
      "byteOffset": 393092,
      "byteStride": 16,
      "name": "floatBufferViews",
      "target": 34962
    }
  ],
  "buffers": [
    {
      "byteLength": 503652,
      "uri": "scene.bin"
    }
  ],
  "images": [
    {
      "uri": "textures/material_baseColor.png"
    },
    {
      "uri": "textures/material_metallicRoughness.png"
    },
    {
      "uri": "textures/material_normal.png"
    }
  ],
  "materials": [
    {
      "doubleSided": true,
      "name": "material",
      "normalTexture": {
        "index": 2,
        "scale": 0.6994307030269045
      },
      "pbrMetallicRoughness": {
        "baseColorTexture": {
          "index": 0
        },
        "metallicRoughnessTexture": {
          "index": 1
        }
      }
    },
    {
      "doubleSided": true,
      "name": "material_1",
      "pbrMetallicRoughness": {
        "baseColorFactor": [
          0.0,
          0.0,
          0.0,
          1.0
        ],
        "metallicFactor": 0.0,
        "roughnessFactor": 0.9524317153998911
      }
    }
  ],
  "meshes": [
    {
      "name": "01_02_0",
      "primitives": [
        {
          "attributes": {
            "NORMAL": 1,
            "POSITION": 0,
            "TANGENT": 2,
            "TEXCOORD_0": 3
          },
          "indices": 4,
          "material": 0,
          "mode": 4
        }
      ]
    },
    {
      "name": "01_01_0",
      "primitives": [
        {
          "attributes": {
            "NORMAL": 6,
            "POSITION": 5,
            "TEXCOORD_0": 7
          },
          "indices": 8,
          "material": 1,
          "mode": 4
        }
      ]
    },
    {
      "name": "01_2_01_0",
      "primitives": [
        {
          "attributes": {
            "NORMAL": 10,
            "POSITION": 9,
            "TEXCOORD_0": 11
          },
          "indices": 12,
          "material": 1,
          "mode": 4
        }
      ]
    },
    {
      "name": "01_1_02_0",
      "primitives": [
        {
          "attributes": {
            "NORMAL": 14,
            "POSITION": 13,
            "TANGENT": 15,
            "TEXCOORD_0": 16
          },
          "indices": 17,
          "material": 0,
          "mode": 4
        }
      ]
    }
  ],
  "nodes": [
    {
      "children": [
        1
      ],
      "matrix": [
        1.0,
        0.0,
        0.0,
        0.0,
        0.0,
        2.220446049250313e-16,
        -1.0,
        0.0,
        0.0,
        1.0,
        2.220446049250313e-16,
        0.0,
        0.0,
        0.0,
        0.0,
        1.0
      ],
      "name": "Sketchfab_model"
    },
    {
      "children": [
        2
      ],
      "matrix": [
        0.009999999776482582,
        0.0,
        0.0,
        0.0,
        0.0,
        0.0,
        0.009999999776482582,
        0.0,
        0.0,
        -0.009999999776482582,
        0.0,
        0.0,
        0.0,
        0.0,
        0.0,
        1.0
      ],
      "name": "1744188160ce478faccb1ff8349b32be.fbx"
    },
    {
      "children": [
        3,
        6,
        8
      ],
      "name": "RootNode"
    },
    {
      "children": [
        4,
        5
      ],
      "matrix": [
        1.0,
        0.0,
        0.0,
        0.0,
        0.0,
        1.0,
        0.0,
        0.0,
        0.0,
        0.0,
        1.0,
        0.0,
        33.713844299316406,
        429.7927551269531,
        -197.65501403808594,
        1.0
      ],
      "name": "01"
    },
    {
      "mesh": 0,
      "name": "01_02_0"
    },
    {
      "mesh": 1,
      "name": "01_01_0"
    },
    {
      "children": [
        7
      ],
      "matrix": [
        1.0,
        0.0,
        0.0,
        0.0,
        0.0,
        1.0,
        0.0,
        0.0,
        0.0,
        0.0,
        1.0,
        0.0,
        33.713844299316406,
        429.7927551269531,
        -197.65501403808594,
        1.0
      ],
      "name": "01_2"
    },
    {
      "mesh": 2,
      "name": "01_2_01_0"
    },
    {
      "children": [
        9
      ],
      "matrix": [
        1.0,
        0.0,
        0.0,
        0.0,
        0.0,
        1.0,
        0.0,
        0.0,
        0.0,
        0.0,
        1.0,
        0.0,
        33.713844299316406,
        429.7927551269531,
        -197.65501403808594,
        1.0
      ],
      "name": "01_1"
    },
    {
      "mesh": 3,
      "name": "01_1_02_0"
    }
  ],
  "samplers": [
    {
      "magFilter": 9729,
      "minFilter": 9987,
      "wrapS": 10497,
      "wrapT": 10497
    }
  ],
  "scene": 0,
  "scenes": [
    {
      "name": "Sketchfab_Scene",
      "nodes": [
        0
      ]
    }
  ],
  "textures": [
    {
      "sampler": 0,
      "source": 0
    },
    {
      "sampler": 0,
      "source": 1
    },
    {
      "sampler": 0,
      "source": 2
    }
  ]
}
