{
  "accessors": [
    {
      "bufferView": 2,
      "componentType": 5126,
      "count": 1258,
      "max": [
        7.922298431396484,
        2.933849334716797,
        1.965613842010498
      ],
      "min": [
        -7.933034896850586,
        -0.9975354075431824,
        -1.9657704830169678
      ],
      "type": "VEC3"
    },
    {
      "bufferView": 2,
      "byteOffset": 15096,
      "componentType": 5126,
      "count": 1258,
      "max": [
        1.0,
        1.0,
        1.0
      ],
      "min": [
        -1.0,
        -1.0,
        -1.0
      ],
      "type": "VEC3"
    },
    {
      "bufferView": 3,
      "componentType": 5126,
      "count": 1258,
      "max": [
        1.0,
        1.0,
        1.0,
        1.0
      ],
      "min": [
        -1.0,
        -1.0,
        -1.0,
        1.0
      ],
      "type": "VEC4"
    },
    {
      "bufferView": 1,
      "componentType": 5126,
      "count": 1258,
      "max": [
        4.218609809875488,
        4.561135768890381
      ],
      "min": [
        -3.293705940246582,
        -3.561135768890381
      ],
      "type": "VEC2"
    },
    {
      "bufferView": 1,
      "byteOffset": 10064,
      "componentType": 5126,
      "count": 1258,
      "max": [
        4.218609809875488,
        4.561135768890381
      ],
      "min": [
        -3.293705940246582,
        -3.561135768890381
      ],
      "type": "VEC2"
    },
    {
      "bufferView": 1,
      "byteOffset": 20128,
      "componentType": 5126,
      "count": 1258,
      "max": [
        4.218609809875488,
        4.561135768890381
      ],
      "min": [
        -3.293705940246582,
        -3.561135768890381
      ],
      "type": "VEC2"
    },
    {
      "bufferView": 0,
      "componentType": 5125,
      "count": 2145,
      "type": "SCALAR"
    },
    {
      "bufferView": 2,
      "byteOffset": 30192,
      "componentType": 5126,
      "count": 734,
      "max": [
        7.618408203125,
        2.684357166290283,
        -1.9040155410766602
      ],
      "min": [
        -7.618407249450684,
        -0.7361660599708557,
        -2.7608323097229004
      ],
      "type": "VEC3"
    },
    {
      "bufferView": 2,
      "byteOffset": 39000,
      "componentType": 5126,
      "count": 734,
      "max": [
        1.0,
        1.0,
        1.0
      ],
      "min": [
        -1.0,
        -1.0,
        -1.0
      ],
      "type": "VEC3"
    },
    {
      "bufferView": 3,
      "byteOffset": 20128,
      "componentType": 5126,
      "count": 734,
      "max": [
        1.0,
        1.0,
        0.03554581105709076,
        1.0
      ],
      "min": [
        -1.0,
        -1.0,
        -1.0,
        1.0
      ],
      "type": "VEC4"
    },
    {
      "bufferView": 1,
      "byteOffset": 30192,
      "componentType": 5126,
      "count": 734,
      "max": [
        0.5966580510139465,
        3.3124020099639893
      ],
      "min": [
        -0.4165295958518982,
        -2.3124020099639893
      ],
      "type": "VEC2"
    },
    {
      "bufferView": 1,
      "byteOffset": 36064,
      "componentType": 5126,
      "count": 734,
      "max": [
        0.5966580510139465,
        3.3124020099639893
      ],
      "min": [
        -0.4165295958518982,
        -2.3124020099639893
      ],
      "type": "VEC2"
    },
    {
      "bufferView": 1,
      "byteOffset": 41936,
      "componentType": 5126,
      "count": 734,
      "max": [
        0.5966580510139465,
        3.3124020099639893
      ],
      "min": [
        -0.4165295958518982,
        -2.3124020099639893
      ],
      "type": "VEC2"
    },
    {
      "bufferView": 0,
      "byteOffset": 8580,
      "componentType": 5125,
      "count": 2328,
      "type": "SCALAR"
    }
  ],
  "asset": {
    "extras": {
      "author": "DevelopRstore (https://sketchfab.com/developrstore)",
      "license": "SKETCHFAB Standard (https://sketchfab.com/licenses)",
      "source": "https://sketchfab.com/3d-models/wooden-cabinet-6b1d8237735541a8bf3b1a95398f8dc7",
      "title": "Wooden Cabinet"
    },
    "generator": "Sketchfab-16.9.0",
    "version": "2.0"
  },
  "bufferViews": [
    {
      "buffer": 0,
      "byteLength": 17892,
      "name": "floatBufferViews",
      "target": 34963
    },
    {
      "buffer": 0,
      "byteLength": 47808,
      "byteOffset": 17892,
      "byteStride": 8,
      "name": "floatBufferViews",
      "target": 34962
    },
    {
      "buffer": 0,
      "byteLength": 47808,
      "byteOffset": 65700,
      "byteStride": 12,
      "name": "floatBufferViews",
      "target": 34962
    },
    {
      "buffer": 0,
      "byteLength": 31872,
      "byteOffset": 113508,
      "byteStride": 16,
      "name": "floatBufferViews",
      "target": 34962
    }
  ],
  "buffers": [
    {
      "byteLength": 145380,
      "uri": "scene.bin"
    }
  ],
  "images": [
    {
      "uri": "textures/Wood_baseColor.jpeg"
    },
    {
      "uri": "textures/Wood_normal.png"
    }
  ],
  "materials": [
    {
      "doubleSided": true,
      "name": "Wood",
      "normalTexture": {
        "index": 1,
        "texCoord": 1
      },
      "pbrMetallicRoughness": {
        "baseColorTexture": {
          "index": 0
        },
        "metallicFactor": 0.0,
        "roughnessFactor": 0.8211145618000169
      }
    },
    {
      "doubleSided": true,
      "name": "Legs",
      "normalTexture": {
        "index": 1
      },
      "pbrMetallicRoughness": {
        "baseColorTexture": {
          "index": 0
        },
        "metallicFactor": 0.0,
        "roughnessFactor": 0.8211145618000169
      }
    }
  ],
  "meshes": [
    {
      "name": "Cabinet_Wood_0",
      "primitives": [
        {
          "attributes": {
            "NORMAL": 1,
            "POSITION": 0,
            "TANGENT": 2,
            "TEXCOORD_0": 3,
            "TEXCOORD_1": 4,
            "TEXCOORD_2": 5
          },
          "indices": 6,
          "material": 0,
          "mode": 4
        }
      ]
    },
    {
      "name": "Legs_Legs_0",
      "primitives": [
        {
          "attributes": {
            "NORMAL": 8,
            "POSITION": 7,
            "TANGENT": 9,
            "TEXCOORD_0": 10,
            "TEXCOORD_1": 11,
            "TEXCOORD_2": 12
          },
          "indices": 13,
          "material": 1,
          "mode": 4
        }
      ]
    }
  ],
  "nodes": [
    {
      "children": [
        1
      ],
      "matrix": [
        1.0,
        0.0,
        0.0,
        0.0,
        0.0,
        2.220446049250313e-16,
        -1.0,
        0.0,
        0.0,
        1.0,
        2.220446049250313e-16,
        0.0,
        0.0,
        0.0,
        0.0,
        1.0
      ],
      "name": "Sketchfab_model"
    },
    {
      "children": [
        2
      ],
      "matrix": [
        0.009999999776482582,
        0.0,
        0.0,
        0.0,
        0.0,
        0.0,
        0.009999999776482582,
        0.0,
        0.0,
        -0.009999999776482582,
        0.0,
        0.0,
        0.0,
        0.0,
        0.0,
        1.0
      ],
      "name": "d2a84bc86828445cb3687eaae5b3d0b4.fbx"
    },
    {
      "children": [
        3,
        5
      ],
      "name": "RootNode"
    },
    {
      "children": [
        4
      ],
      "matrix": [
        100.0,
        0.0,
        0.0,
        0.0,
        0.0,
        -1.629206793918314e-05,
        -99.99999999999868,
        0.0,
        0.0,
        99.99999999999868,
        -1.629206793918314e-05,
        0.0,
        0.0,
        0.0,
        0.0,
        1.0
      ],
      "name": "Cabinet"
    },
    {
      "mesh": 0,
      "name": "Cabinet_Wood_0"
    },
    {
      "children": [
        6
      ],
      "matrix": [
        100.0,
        0.0,
        0.0,
        0.0,
        0.0,
        -1.629206793918314e-05,
        -99.99999999999868,
        0.0,
        0.0,
        99.99999999999868,
        -1.629206793918314e-05,
        0.0,
        0.0,
        0.0,
        0.0,
        1.0
      ],
      "name": "Legs"
    },
    {
      "mesh": 1,
      "name": "Legs_Legs_0"
    }
  ],
  "samplers": [
    {
      "magFilter": 9729,
      "minFilter": 9987,
      "wrapS": 10497,
      "wrapT": 10497
    }
  ],
  "scene": 0,
  "scenes": [
    {
      "name": "Sketchfab_Scene",
      "nodes": [
        0
      ]
    }
  ],
  "textures": [
    {
      "sampler": 0,
      "source": 0
    },
    {
      "sampler": 0,
      "source": 1
    }
  ]
}
